<svg xmlns="http://www.w3.org/2000/svg" width="39.996" height="39.996" viewBox="0 0 167 167">
  <defs>
    <style>
      .cls-1, .cls-2, .cls-3 {
        stroke: #000;
        stroke-width: 1px;
      }

      .cls-2 {
        fill: #f9f8f5;
      }

      .cls-3 {
        fill: #010101;
        fill-rule: evenodd;
      }

      .cls-4 {
        fill: #f8f8f7;
      }
    </style>
  </defs>
  <circle id="Elipse_2" data-name="Elipse 2" class="cls-1" cx="46.5" cy="83.5" r="29.5"/>
  <circle id="Elipse_2-2" data-name="Elipse 2" class="cls-1" cx="121.5" cy="83.5" r="29.5"/>
  <ellipse id="Elipse_1" data-name="Elipse 1" class="cls-2" cx="121" cy="95" rx="18" ry="3"/>
  <ellipse id="Elipse_1-2" data-name="Elipse 1" class="cls-2" cx="45" cy="94" rx="18" ry="3"/>
  <circle id="Elipse_1-3" data-name="Elipse 1" class="cls-1" cx="121" cy="84" r="8"/>
  <circle id="Elipse_1-4" data-name="Elipse 1" class="cls-1" cx="45" cy="83" r="8"/>
  <path id="Sign_3_1" data-name="Sign 3 1" class="cls-3" d="M101.8,167l-35.535.011c-1.652,0-2.882-3.345-1.916-6.651,0.773-2.651,16.386-55.612,17.721-60.132,0.877-2.969,2.97-2.919,3.849,0,0.981,3.253,16.691,56.407,17.783,60.256C104.5,163.3,103.616,167,101.8,167Z"/>
  <rect id="Rectángulo_redondeado_1" data-name="Rectángulo redondeado 1" class="cls-4" x="83" y="111" width="2" height="51" rx="1" ry="1"/>
</svg>
